<?xml version="1.0" standalone="no"?>
<!DOCTYPE svg PUBLIC "-//W3C//DTD SVG 20010904//EN"
 "http://www.w3.org/TR/2001/REC-SVG-20010904/DTD/svg10.dtd">
<svg version="1.0" xmlns="http://www.w3.org/2000/svg"
 width="145.000000pt" height="289.000000pt" viewBox="0 0 145.000000 289.000000"
 preserveAspectRatio="xMidYMid meet">

<g transform="translate(0.000000,289.000000) scale(0.100000,-0.100000)"
fill="#000000" stroke="none">
<path d="M1 2768 c1 -68 4 -108 8 -91 6 34 34 73 51 73 5 0 10 -2 10 -4 0 -11
-52 -106 -61 -111 -12 -8 -10 -340 3 -375 6 -16 6 -26 -1 -28 -17 -6 -13 -78
4 -92 8 -7 15 -18 15 -24 0 -6 -7 -3 -15 8 -12 16 -14 -6 -13 -170 0 -119 4
-194 11 -202 8 -10 7 -16 -2 -22 -13 -8 -12 -36 5 -89 5 -17 4 -22 -4 -17 -9
5 -12 -25 -11 -116 0 -71 4 -115 8 -103 5 11 6 26 3 34 -3 8 -1 12 5 8 16 -10
50 33 68 86 l16 47 -41 58 c-42 60 -47 72 -30 72 5 0 12 -11 16 -25 3 -13 13
-30 21 -37 8 -7 19 -23 24 -36 12 -30 25 -21 32 20 5 34 -12 139 -24 148 -12
10 -50 92 -45 98 3 3 12 -11 21 -31 8 -19 19 -38 25 -42 17 -10 12 71 -5 85
-8 7 -15 22 -15 34 0 17 2 18 10 6 11 -18 19 -11 22 21 2 13 11 30 21 37 12
10 16 20 11 35 -3 12 -3 19 1 15 15 -14 35 14 29 41 -5 23 -4 24 9 9 20 -25
54 -12 67 27 11 34 6 59 -18 88 -19 21 -7 35 16 20 10 -7 16 -22 15 -39 l-2
-29 16 29 c14 26 14 32 -1 63 -20 43 -20 49 1 32 15 -12 16 -12 10 5 -6 14 -4
17 8 12 21 -7 19 16 -2 40 -10 10 -24 31 -32 47 -8 15 -18 27 -23 27 -4 0 -8
7 -8 15 0 8 -9 24 -20 35 -11 11 -21 23 -21 28 -1 4 -4 13 -7 20 -11 30 7 20
22 -12 17 -36 42 -53 50 -33 2 7 2 -3 -1 -22 -5 -29 -4 -33 10 -28 11 4 17 -2
22 -23 3 -15 14 -35 24 -44 17 -16 19 -15 25 16 5 24 2 36 -9 44 -8 6 -15 15
-15 21 0 5 -8 18 -18 29 -28 31 -74 114 -69 127 2 7 14 -7 26 -31 12 -23 28
-50 36 -60 8 -9 28 -37 46 -61 24 -33 33 -40 40 -30 14 22 11 47 -8 67 -10 9
-24 30 -30 45 -13 29 -28 35 -37 15 -3 -7 -5 -4 -4 7 2 27 -11 65 -23 65 -5 0
-9 7 -9 15 0 8 -8 23 -18 33 -11 11 -22 29 -25 42 -4 18 1 14 29 -16 19 -22
34 -44 34 -50 0 -21 25 -35 38 -22 16 16 15 29 -4 53 -11 15 -17 17 -22 8 -5
-8 -8 3 -9 24 -1 21 -6 39 -12 41 -6 2 -11 8 -11 14 0 17 30 -13 57 -56 29
-45 48 -37 46 19 -1 20 3 32 8 29 6 -3 17 0 26 8 15 12 15 11 4 -10 -11 -20
-10 -27 5 -43 19 -21 39 -16 25 8 -4 9 -6 25 -3 35 3 11 0 23 -5 27 -6 3 -14
17 -18 31 l-7 25 18 -22 c41 -47 54 -63 54 -69 0 -3 9 -17 20 -31 l20 -25 10
27 c5 14 10 32 10 39 0 11 -50 86 -77 114 -7 7 -16 20 -21 28 -6 11 -20 14
-46 12 l-38 -3 21 -27 c23 -29 26 -38 11 -38 -5 0 -10 6 -10 13 0 7 -9 23 -20
35 -20 21 -29 22 -185 22 l-165 0 1 -122z m347 -14 c-4 -3 -12 5 -18 18 -12
22 -12 22 6 6 10 -10 15 -20 12 -24z m-208 -1 c0 -3 -5 -13 -11 -24 -7 -15
-14 -17 -23 -10 -8 7 -12 5 -12 -9 0 -10 4 -16 9 -13 10 6 -19 -65 -34 -84
-12 -13 -29 -9 -29 8 0 6 5 7 11 3 8 -4 9 1 4 16 -5 16 -4 20 5 15 9 -5 10 -2
5 14 -4 12 -2 21 4 21 6 0 11 9 11 19 0 24 22 48 44 48 9 0 16 -2 16 -4z m50
-18 c0 -8 -4 -15 -10 -15 -5 0 -10 7 -10 15 0 8 5 15 10 15 6 0 10 -7 10 -15z
m-16 -28 c7 -6 4 -7 -7 -3 -13 4 -16 2 -10 -7 12 -19 11 -30 -6 -50 -9 -11
-16 -26 -16 -35 0 -22 -21 -26 -29 -6 -4 11 5 41 21 75 15 32 30 53 32 46 2
-7 9 -16 15 -20z m14 -54 c-1 -5 3 -18 10 -30 7 -12 8 -24 3 -27 -10 -7 -33
42 -26 55 7 11 16 12 13 2z m-18 -110 c0 -20 -16 -8 -23 17 -4 17 -3 19 9 9 8
-6 14 -18 14 -26z m-70 5 c0 -7 10 -22 22 -35 19 -20 20 -26 8 -48 -10 -18
-16 -22 -22 -13 -12 19 -9 35 3 18 8 -11 9 -8 4 14 -3 15 -13 35 -20 43 -17
16 -20 48 -5 38 6 -3 10 -11 10 -17z m-66 -14 c3 -8 2 -12 -4 -9 -6 3 -10 10
-10 16 0 14 7 11 14 -7z m33 -66 c-3 -8 -6 -5 -6 6 -1 11 2 17 5 13 3 -3 4
-12 1 -19z m123 -21 c0 -5 -4 -6 -9 -3 -5 4 -7 -3 -4 -14 4 -14 0 -20 -11 -20
-19 0 -22 40 -4 58 9 9 14 9 20 -1 4 -6 8 -16 8 -20z m-85 -18 c10 -30 0 -33
-13 -4 -6 14 -7 25 -2 25 5 0 12 -9 15 -21z m-65 -4 c0 -8 -2 -15 -4 -15 -2 0
-6 7 -10 15 -3 8 -1 15 4 15 6 0 10 -7 10 -15z m47 -37 c-3 -8 -6 -5 -6 6 -1
11 2 17 5 13 3 -3 4 -12 1 -19z m133 -25 c0 -7 -5 -13 -10 -13 -12 0 -30 41
-23 53 6 10 32 -23 33 -40z m-72 21 c6 4 8 -2 5 -14 -7 -25 -23 -37 -23 -16 0
8 -3 23 -6 33 -4 14 -4 15 4 4 5 -7 14 -11 20 -7z m-78 -14 c6 -11 7 -20 2
-20 -6 0 -12 9 -15 20 -3 11 -3 20 -1 20 2 0 8 -9 14 -20z m190 -61 c0 -4 -10
-24 -22 -45 -20 -34 -22 -35 -35 -18 -15 21 -17 44 -4 44 5 0 12 -6 14 -12 10
-24 26 13 17 38 -5 12 -6 25 -2 29 6 6 32 -22 32 -36z m-73 10 c-1 -11 -9 -25
-19 -30 -10 -5 -18 -15 -18 -22 0 -8 4 -7 10 3 8 11 9 7 4 -14 -4 -15 -2 -31
3 -35 6 -3 13 -17 17 -31 7 -24 7 -24 -8 -5 -43 55 -51 62 -59 51 -5 -6 -5 0
-1 14 4 14 15 31 25 38 11 7 19 19 19 27 0 7 6 16 13 18 6 3 13 6 14 6 1 1 1
-8 0 -20z m-73 -28 c-6 -6 -24 19 -24 34 1 6 7 1 15 -9 8 -11 12 -22 9 -25z
m-69 19 c3 -5 1 -10 -4 -10 -6 0 -11 5 -11 10 0 6 2 10 4 10 3 0 8 -4 11 -10z
m39 -56 c4 -9 4 -19 2 -21 -8 -8 -26 8 -26 23 0 19 16 18 24 -2z m36 -72 c0
-13 -3 -12 -15 4 -19 25 -19 40 0 24 8 -7 15 -20 15 -28z m-70 8 c6 -11 7 -20
2 -20 -6 0 -12 9 -15 20 -3 11 -3 20 -1 20 2 0 8 -9 14 -20z m40 -69 c-1 -13
-3 -13 -15 3 -19 26 -19 42 0 26 8 -7 15 -20 15 -29z m70 -10 c0 -11 -4 -10
-15 5 -8 10 -14 26 -14 34 0 11 3 10 14 -4 8 -11 15 -27 15 -35z m77 8 c-1
-19 -33 -33 -42 -19 -3 5 -3 20 1 34 5 21 9 23 24 14 10 -7 18 -20 17 -29z
m-180 -34 c9 -25 -4 -29 -17 -6 -7 15 -7 21 0 21 6 0 13 -7 17 -15z m73 -29
c0 -6 -7 -2 -15 8 -8 11 -15 25 -15 30 0 6 7 2 15 -8 8 -11 15 -25 15 -30z
m-30 -45 c0 -17 -17 -13 -24 5 -10 27 -7 36 9 20 8 -8 15 -19 15 -25z m-70 7
c0 -19 -2 -20 -10 -8 -13 19 -13 30 0 30 6 0 10 -10 10 -22z m40 -72 c0 -12
-5 -7 -19 24 -11 24 -11 24 3 6 9 -11 16 -24 16 -30z m-30 -38 c0 -5 -4 -8
-10 -8 -5 0 -10 10 -10 23 0 18 2 19 10 7 5 -8 10 -18 10 -22z m0 -109 c0 -11
-4 -17 -10 -14 -5 3 -10 15 -10 26 0 11 5 17 10 14 6 -3 10 -15 10 -26z m40
-76 c0 -7 4 -13 8 -13 12 0 32 -46 25 -54 -6 -6 -63 97 -63 112 1 12 30 -31
30 -45z m-26 -139 c10 -25 -1 -29 -14 -5 -6 12 -7 21 -1 21 5 0 12 -7 15 -16z
m-20 -66 c15 -29 22 -57 11 -47 -7 8 -36 79 -31 79 3 0 12 -14 20 -32z"/>
<path d="M450 2877 c8 -7 21 -24 29 -39 8 -16 18 -28 23 -28 4 0 8 -4 8 -10 0
-5 9 -19 20 -30 20 -20 20 -20 35 10 15 30 15 32 -17 70 -28 34 -39 40 -73 40
-33 -1 -37 -3 -25 -13z"/>
<path d="M550 2878 c1 -23 39 -60 55 -54 16 6 21 -8 28 -88 4 -41 2 -49 -14
-53 -10 -3 -19 -9 -19 -14 0 -5 -27 -47 -60 -94 -59 -82 -146 -235 -135 -235
3 0 15 9 27 20 12 11 30 20 40 20 23 0 36 -29 17 -40 -10 -7 -8 -11 10 -18 25
-9 74 -4 67 7 -2 3 3 13 12 21 14 13 15 12 9 -4 -6 -14 -3 -17 8 -12 9 3 18
-1 21 -9 4 -8 17 -15 30 -15 25 0 31 9 14 26 -7 7 2 9 26 6 29 -4 36 -1 41 16
8 33 66 41 150 21 57 -14 302 -118 340 -145 39 -28 143 -132 143 -144 0 -5 0
-13 -1 -16 0 -4 4 -10 10 -13 14 -9 21 -71 8 -71 -6 0 -7 -3 -4 -7 4 -3 2 -12
-3 -18 -6 -7 -7 -20 -4 -30 7 -17 8 -17 20 -1 10 14 12 11 10 -23 0 -22 -7
-45 -13 -51 -10 -7 -10 -7 -3 2 16 19 12 28 -15 28 -16 0 -25 -6 -25 -15 0 -8
4 -15 9 -15 9 0 6 -74 -4 -90 -3 -5 -16 -5 -31 0 -14 6 -38 10 -53 10 -15 0
-31 4 -37 9 -13 14 -80 -12 -103 -40 -24 -30 -46 -119 -37 -155 11 -44 83
-111 138 -130 56 -18 72 -42 63 -93 -8 -43 -47 -107 -67 -108 -7 0 -20 -4 -29
-7 -11 -5 -25 3 -44 26 -17 20 -30 28 -32 21 -3 -7 -9 -13 -15 -13 -13 0 -1
50 18 71 15 17 18 38 8 62 -5 14 -11 14 -45 2 -25 -9 -41 -10 -45 -4 -3 6 -10
9 -16 7 -6 -2 -24 9 -40 24 -24 23 -39 28 -78 28 -27 0 -52 5 -55 10 -4 6 -10
8 -15 5 -8 -5 -4 -36 10 -70 4 -11 11 -28 14 -39 5 -16 9 -16 23 -5 14 13 16
11 11 -13 -3 -16 -2 -28 1 -28 3 0 18 -10 33 -23 14 -12 35 -28 45 -35 16 -11
13 -11 -17 -6 -19 3 -39 9 -45 13 -5 4 -21 8 -35 9 -13 1 -29 8 -35 16 -6 8
-29 17 -50 21 -63 11 -75 15 -75 30 0 8 7 11 20 8 11 -3 20 -1 20 5 0 13 -20
26 -40 27 -8 0 -14 6 -13 13 2 6 -4 12 -12 12 -27 0 -16 18 19 30 38 12 79 50
55 50 -8 0 -19 -4 -25 -9 -12 -12 -114 -30 -131 -24 -7 3 -13 -1 -13 -9 0 -8
-9 -23 -21 -34 -17 -15 -20 -27 -16 -57 4 -31 1 -43 -20 -65 -13 -14 -38 -28
-54 -30 -24 -3 -31 2 -40 25 -7 20 -7 29 1 31 7 3 5 11 -6 23 -13 14 -14 22
-6 32 9 11 6 13 -18 9 -27 -4 -30 -2 -31 24 0 19 -3 24 -7 14 -4 -8 -18 -16
-32 -17 -14 -1 -20 0 -14 3 13 6 7 44 -7 44 -5 0 -6 -7 -3 -15 4 -8 2 -15 -4
-15 -6 0 -13 6 -15 13 -3 6 -11 -3 -18 -20 -8 -18 -19 -33 -26 -33 -7 0 -13
-7 -13 -15 0 -8 -8 -15 -18 -15 -19 0 -52 -29 -52 -46 0 -5 -6 -21 -14 -36 -9
-16 -13 -52 -12 -91 0 -38 -3 -63 -8 -60 -5 4 -7 -4 -3 -16 3 -13 1 -34 -6
-48 -9 -21 -8 -27 6 -38 9 -7 17 -19 17 -28 0 -9 4 -18 8 -21 5 -3 7 -18 4
-34 -2 -17 1 -39 7 -51 8 -14 8 -21 1 -21 -5 0 -9 -6 -8 -12 2 -8 -5 -12 -17
-10 -11 2 -32 4 -48 3 -18 0 -27 5 -27 15 0 8 -9 24 -20 36 -11 12 -20 36 -20
52 0 17 -7 40 -15 50 -13 18 -15 8 -15 -97 0 -107 2 -122 26 -170 15 -29 45
-75 68 -103 34 -43 48 -53 81 -58 33 -5 44 -13 58 -39 10 -18 31 -38 48 -46
25 -11 29 -17 25 -42 -2 -16 1 -35 8 -42 7 -7 11 -18 8 -26 -3 -10 2 -13 22
-9 14 3 26 1 26 -3 0 -5 6 -9 13 -9 31 0 37 -23 14 -59 -12 -20 -22 -38 -22
-41 0 -3 -4 -4 -9 -2 -5 2 -6 -8 -4 -21 4 -20 1 -23 -14 -19 -10 2 -21 8 -24
13 -3 5 -21 9 -40 9 -57 0 -94 23 -191 120 l-93 91 0 -110 0 -110 33 -24 c65
-49 214 -127 272 -142 82 -21 157 -20 178 3 9 9 32 55 52 102 20 47 58 126 84
175 65 122 98 208 116 302 l15 78 -5 -75 c-4 -67 -26 -213 -42 -280 -3 -14 -3
-23 0 -20 9 8 74 274 87 357 11 68 38 123 61 123 5 0 33 16 63 35 30 19 57 35
60 35 3 0 28 13 56 30 28 16 53 30 56 30 3 0 2 -19 -1 -43 -11 -69 22 -99 123
-111 13 -1 27 -7 30 -12 17 -24 84 -54 108 -48 30 8 32 43 4 69 -11 10 -20 13
-20 7 0 -18 -36 -14 -55 4 -9 9 -15 26 -13 38 2 16 -10 30 -55 58 -32 21 -67
38 -77 38 -27 0 -25 14 3 29 12 6 32 27 45 46 24 38 22 37 130 19 33 -5 47 -3
61 10 18 17 19 16 25 -1 2 -10 3 -40 1 -68 -2 -27 -4 -54 -5 -59 0 -5 -10 0
-23 12 -13 12 -31 22 -40 22 -9 0 -17 5 -17 10 0 6 -11 10 -25 10 -14 0 -25
-4 -25 -9 0 -11 25 -21 51 -21 26 0 24 -18 -3 -22 -37 -5 -31 -24 27 -81 33
-34 67 -80 85 -119 l30 -63 0 402 c0 372 -1 403 -17 412 -17 10 -17 12 0 25
13 10 17 29 17 90 0 56 -3 75 -12 70 -11 -7 -7 37 8 94 5 16 2 22 -10 22 -20
0 -20 1 -1 36 8 16 15 40 15 53 0 24 0 24 -15 5 -14 -18 -14 -17 -3 9 9 21 9
30 0 39 -7 7 -12 16 -12 22 0 5 7 1 15 -10 13 -17 14 -13 15 49 0 38 -4 67
-10 67 -5 0 -10 7 -10 15 0 8 5 15 10 15 6 0 10 32 10 77 0 70 -1 75 -15 57
-14 -18 -14 -18 -15 5 0 14 -7 33 -17 43 -9 10 -14 21 -10 24 3 3 13 -6 22
-20 10 -14 21 -26 26 -26 5 0 9 37 9 81 0 70 -2 80 -14 70 -12 -10 -18 -7 -30
18 -21 40 -20 48 2 21 30 -37 42 -17 41 68 0 42 -3 70 -6 62 -12 -30 -27 -29
-38 3 -5 18 -19 36 -31 41 -20 9 -54 58 -54 78 0 6 9 3 19 -6 23 -21 36 -15
56 23 13 27 13 31 -8 55 -28 33 -33 32 -51 -1 l-16 -28 2 45 c3 91 0 100 -27
100 -30 0 -29 13 -15 -310 5 -118 7 -216 5 -219 -11 -10 -20 14 -25 67 l-5 57
-21 -32 c-24 -38 -40 -33 -20 6 13 24 12 29 -10 54 l-23 27 -17 -25 c-16 -24
-16 -26 6 -45 13 -11 20 -23 15 -28 -4 -4 -10 -1 -12 6 -3 6 -11 12 -19 12
-23 0 -28 27 -10 52 20 29 20 47 -1 70 -9 10 -13 21 -9 25 4 4 15 -3 25 -16
l18 -23 20 33 c22 34 21 61 -2 53 -7 -3 -16 0 -21 7 -5 8 -3 10 6 4 8 -5 11
-3 8 5 -12 37 -24 23 -93 -110 -11 -22 -25 -39 -30 -40 -6 0 -19 16 -29 35
-23 41 -33 44 -42 10 -3 -14 -10 -22 -15 -19 -5 3 -5 13 1 24 5 10 10 23 10
28 0 16 -42 58 -47 46 -2 -6 -11 -20 -19 -30 -14 -18 -15 -18 -8 6 12 41 10
75 -3 73 -7 -2 -10 4 -7 12 8 19 20 19 28 0 3 -8 11 -14 18 -13 7 2 12 -3 10
-11 -3 -16 37 -63 49 -56 4 3 13 21 19 41 11 32 10 37 -15 60 -18 16 -25 31
-20 42 3 9 3 13 -1 9 -8 -8 -34 11 -34 25 0 6 7 5 15 -2 8 -7 15 -11 16 -9 0
2 2 24 5 49 4 43 3 46 -21 48 -17 1 -25 -3 -25 -14 0 -10 -6 -14 -15 -10 -17
6 -21 -9 -5 -19 6 -4 20 4 31 17 11 13 19 19 16 13 -21 -57 -30 -75 -37 -75
-5 0 -10 -6 -13 -12 -2 -7 -3 -5 -1 5 1 10 -5 31 -14 48 -15 26 -15 31 -2 39
11 7 4 10 -27 10 l-41 0 5 -40 c4 -26 2 -40 -6 -40 -6 0 -11 -7 -11 -16 0 -8
5 -12 10 -9 6 3 10 -1 10 -10 0 -11 -5 -15 -15 -11 -27 10 -36 -27 -13 -54
l20 -25 -5 28 c-2 15 -1 30 3 32 5 3 10 -22 12 -55 1 -33 2 -60 1 -60 -14 0
-51 25 -47 31 3 5 0 9 -7 9 -8 0 -8 4 -1 13 6 7 7 18 3 26 -6 10 -13 5 -27
-18 -20 -35 -35 -38 -58 -15 -25 24 -19 38 8 21 23 -15 25 -15 40 8 15 23 15
27 0 50 -21 33 -28 32 -53 -7 -25 -39 -28 -28 -4 12 14 24 15 34 5 54 -6 15
-8 26 -3 26 5 0 12 -7 15 -16 3 -8 10 -12 16 -9 5 3 10 0 10 -7 1 -16 39 -63
46 -56 2 3 1 16 -4 29 -11 31 -4 61 11 53 7 -4 4 1 -5 12 -17 18 -18 18 -33
-1 -17 -23 -19 -17 -6 18 9 22 7 23 -37 25 -26 1 -42 -1 -37 -5 6 -5 11 -15
13 -23 1 -9 -5 -7 -17 8 -27 32 -59 29 -64 -5 l-4 -28 -2 28 c-1 23 -5 27 -31
27 -18 0 -30 -5 -30 -12z m350 -38 c0 -5 -5 -10 -11 -10 -5 0 -7 5 -4 10 3 6
8 10 11 10 2 0 4 -4 4 -10z m0 -54 c0 -8 -4 -17 -8 -20 -4 -2 -8 4 -8 15 0 10
4 19 8 19 4 0 8 -6 8 -14z m456 -24 c-17 -16 -18 -16 -5 5 7 12 15 20 18 17 3
-2 -3 -12 -13 -22z m-336 -83 c0 -42 -16 -36 -18 6 -1 21 3 33 8 30 6 -3 10
-19 10 -36z m-123 -21 c-3 -8 -6 -5 -6 6 -1 11 2 17 5 13 3 -3 4 -12 1 -19z
m-251 -12 c3 -8 18 -18 34 -21 31 -7 109 -69 98 -80 -13 -13 -97 36 -128 75
-17 22 -27 40 -21 40 7 0 14 -6 17 -14z m544 -36 c-13 -24 -16 -25 -24 -4 -3
8 -2 12 4 9 14 -9 12 9 -2 24 -11 11 -9 11 10 2 18 -10 20 -15 12 -31z m-539
-17 c11 -13 11 -17 2 -20 -7 -3 -13 -15 -13 -28 0 -26 -26 -45 -61 -45 -22 0
-22 1 -4 14 16 12 17 16 6 29 -7 9 -9 21 -5 28 5 8 9 7 16 -5 12 -21 42 -22
34 0 -3 9 -6 21 -6 27 0 7 -4 6 -10 -3 -5 -8 -10 -10 -10 -4 0 27 31 32 51 7z
m740 -73 l20 25 -17 -37 c-16 -35 -53 -66 -41 -34 3 8 -1 20 -9 26 -8 7 -14
20 -14 29 1 12 6 10 21 -9 l21 -24 19 24z m-411 6 c0 -3 -4 -8 -10 -11 -5 -3
-10 -1 -10 4 0 6 5 11 10 11 6 0 10 -2 10 -4z m137 -22 c2 -6 -5 -14 -17 -17
-15 -4 -20 0 -20 15 0 21 30 23 37 2z m-571 -5 c3 -6 2 -15 -4 -21 -6 -6 -11
-2 -15 11 -5 22 7 29 19 10z m-56 -59 c0 -5 -5 -10 -11 -10 -5 0 -7 5 -4 10 3
6 8 10 11 10 2 0 4 -4 4 -10z m135 -60 c3 -5 -1 -10 -10 -10 -9 0 -13 5 -10
10 3 6 8 10 10 10 2 0 7 -4 10 -10z m754 -40 c9 0 9 -5 0 -22 -11 -21 -12 -20
-25 12 -17 40 -17 50 0 28 7 -10 18 -18 25 -18z m-49 -30 c0 -5 -5 -10 -11
-10 -5 0 -7 5 -4 10 3 6 8 10 11 10 2 0 4 -4 4 -10z m80 -615 c0 -8 -4 -15 -9
-15 -5 0 -11 7 -15 15 -3 9 0 15 9 15 8 0 15 -7 15 -15z m-10 -146 c0 -7 -6
-4 -15 7 -19 25 -19 40 0 20 8 -8 15 -20 15 -27z m-7 -34 c-3 -9 -8 -14 -10
-11 -3 3 -2 9 2 15 9 16 15 13 8 -4z m-64 -182 c-2 -99 -3 -109 -9 -63 -15
102 -11 180 7 180 2 0 2 -53 2 -117z m-688 -31 c27 -21 89 -36 89 -23 0 12 88
12 96 0 3 -5 14 -9 24 -9 10 0 25 -7 34 -15 8 -8 20 -15 27 -15 16 0 70 -61
66 -74 -2 -6 -17 -10 -33 -8 -16 2 -38 4 -48 5 -10 1 -21 -4 -24 -12 -3 -8 1
-12 9 -9 16 5 52 -29 44 -43 -9 -13 -55 -6 -65 11 -5 7 -18 15 -30 17 -13 2
-40 17 -61 34 -36 29 -44 29 -39 4 1 -5 -14 5 -32 23 -41 39 -51 40 -38 6 13
-33 13 -33 -9 -27 -10 3 -22 0 -26 -7 -8 -13 13 -42 26 -34 5 3 9 0 9 -5 0 -6
4 -11 10 -11 10 0 54 -34 77 -60 7 -8 22 -25 33 -37 23 -26 25 -33 8 -33 -6 0
-19 -7 -29 -16 -16 -14 -20 -14 -43 1 -14 10 -26 22 -26 27 0 5 -4 7 -9 3 -5
-3 -12 -1 -16 5 -4 6 -11 8 -16 5 -5 -4 -12 0 -15 9 -3 8 -12 12 -20 9 -10 -4
-14 3 -14 21 0 15 -8 31 -19 38 -10 6 -17 18 -14 25 3 8 -3 13 -16 13 -25 0
-26 7 -5 31 13 15 14 26 6 66 -7 29 -7 49 -1 51 5 2 9 10 9 17 0 14 26 34 46
35 6 0 22 -8 35 -18z m-221 -12 c0 -5 -2 -10 -4 -10 -3 0 -8 5 -11 10 -3 6 -1
10 4 10 6 0 11 -4 11 -10z m970 -12 c0 -19 -2 -20 -10 -8 -13 19 -13 30 0 30
6 0 10 -10 10 -22z m-86 -7 c3 -4 -7 -19 -22 -32 -20 -18 -22 -19 -9 -3 9 11
17 26 17 32 0 14 7 16 14 3z m36 -163 c0 -19 -24 -23 -79 -12 -22 5 -31 12
-31 27 0 18 5 19 45 14 32 -5 45 -3 45 6 0 19 20 -15 20 -35z m-131 -190 c22
-13 16 -48 -8 -48 -27 0 -55 25 -48 44 7 19 30 21 56 4z"/>
<path d="M750 1260 c0 -5 5 -10 10 -10 6 0 10 5 10 10 0 6 -4 10 -10 10 -5 0
-10 -4 -10 -10z"/>
<path d="M815 1200 c3 -5 8 -10 11 -10 2 0 4 5 4 10 0 6 -5 10 -11 10 -5 0 -7
-4 -4 -10z"/>
<path d="M797 2883 c-3 -5 4 -17 14 -27 19 -19 19 -19 19 7 0 25 -22 38 -33
20z"/>
<path d="M1050 2822 l-35 -67 23 -25 c13 -14 28 -24 33 -22 5 1 -5 -23 -22
-53 -30 -53 -30 -55 -12 -79 23 -32 25 -32 45 3 13 24 14 30 3 35 -9 3 -12 0
-9 -8 3 -8 0 -17 -6 -21 -7 -4 -9 2 -4 22 3 15 5 39 5 52 -1 17 3 22 15 17 8
-3 12 -2 9 4 -3 6 3 11 14 11 41 3 46 4 46 14 0 6 -8 21 -18 35 -17 23 -19 24
-31 8 -18 -24 -29 -23 -16 1 11 22 -7 42 -20 21 -5 -8 -9 -7 -14 6 -3 9 -4 19
-1 22 3 3 5 0 5 -7 0 -7 4 -10 9 -7 5 3 7 15 4 26 -6 23 12 27 21 5 3 -8 13
-15 23 -15 14 0 15 2 4 9 -10 7 -11 13 -2 30 16 28 25 27 11 -1 -11 -22 -11
-22 5 -3 18 23 15 39 -10 43 -12 3 -15 0 -10 -10 3 -7 0 -5 -8 5 -8 9 -16 17
-18 17 -2 0 -20 -31 -39 -68z"/>
<path d="M1176 2865 c-9 -13 -16 -27 -16 -31 0 -3 -9 -19 -20 -34 -19 -26 -19
-28 -2 -36 9 -4 20 -7 24 -6 4 1 5 -5 2 -13 -12 -31 22 -13 37 19 14 32 14 36
-3 58 -21 28 -24 45 -3 28 8 -6 20 -8 26 -4 9 5 10 2 6 -10 -5 -12 -3 -16 5
-14 7 3 14 19 16 36 3 29 1 32 -26 32 -21 0 -35 -8 -46 -25z"/>
<path d="M1390 2855 l-22 -36 20 -19 c11 -10 22 -25 25 -32 4 -10 8 -10 16 2
7 10 6 17 -2 22 -8 5 -6 8 6 8 9 0 17 5 17 10 0 6 -5 10 -11 10 -6 0 -9 7 -5
15 3 8 1 14 -3 12 -9 -2 -11 3 -11 26 0 8 4 7 11 -3 9 -12 10 -12 7 -1 -8 27
-26 22 -48 -14z m17 -30 c0 -8 -4 -12 -9 -9 -5 3 -6 10 -3 15 9 13 12 11 12
-6z"/>
<path d="M1010 2863 c0 -6 8 -17 18 -24 16 -13 16 -13 2 6 -8 11 -16 22 -17
24 -2 2 -3 0 -3 -6z"/>
<path d="M572 2775 c-16 -35 -15 -49 6 -68 32 -29 42 -21 37 31 -2 26 -4 50
-5 55 -1 17 -28 5 -38 -18z"/>
<path d="M1207 2747 l-26 -42 26 -22 c14 -13 30 -20 34 -17 12 7 12 111 0 118
-5 3 -20 -13 -34 -37z"/>
<path d="M1435 2751 c-3 -5 -1 -12 5 -16 5 -3 10 1 10 9 0 18 -6 21 -15 7z"/>
<path d="M1394 2692 l-20 -39 26 -32 c22 -26 29 -29 38 -18 18 21 4 127 -17
127 -3 0 -15 -17 -27 -38z"/>
<path d="M530 2696 c-14 -39 -9 -49 12 -22 10 14 13 28 8 36 -7 11 -11 7 -20
-14z"/>
<path d="M450 2681 c-17 -32 5 -88 26 -66 18 17 18 46 0 70 -13 18 -14 18 -26
-4z"/>
<path d="M369 2657 c-9 -20 -8 -29 4 -48 l16 -22 11 27 c8 21 7 32 -4 48 -15
21 -15 21 -27 -5z"/>
<path d="M1100 2648 c0 -4 4 -8 9 -8 6 0 12 4 15 8 3 5 -1 9 -9 9 -8 0 -15 -4
-15 -9z"/>
<path d="M492 2615 c-15 -31 -15 -45 -2 -45 16 0 32 39 22 56 -7 12 -10 10
-20 -11z"/>
<path d="M1228 2613 c-8 -10 -21 -29 -28 -41 -10 -21 -9 -27 11 -48 36 -39 49
-31 49 29 0 65 -10 84 -32 60z"/>
<path d="M411 2602 c-14 -27 -14 -45 1 -36 6 4 8 3 5 -3 -4 -6 -1 -16 7 -22
20 -17 32 48 12 67 -12 12 -16 12 -25 -6z"/>
<path d="M330 2585 c-12 -22 -11 -27 5 -45 l19 -21 12 23 c8 16 9 28 1 45 -13
29 -20 29 -37 -2z"/>
<path d="M451 2528 l-11 -33 20 25 c21 27 25 40 11 40 -5 0 -14 -15 -20 -32z"/>
<path d="M372 2524 c-10 -20 -9 -28 3 -40 15 -15 35 -11 35 7 0 6 -5 7 -12 3
-7 -4 -8 -3 -4 5 4 6 12 9 17 6 5 -4 4 5 -3 19 -14 33 -22 33 -36 0z"/>
<path d="M417 2468 c-9 -31 -2 -33 11 -3 6 14 8 25 3 25 -5 0 -11 -10 -14 -22z"/>
<path d="M331 2242 c-39 -61 -75 -162 -62 -175 6 -6 12 4 16 27 4 20 11 36 15
36 5 0 12 15 15 33 4 17 11 37 16 43 11 14 41 84 35 84 -2 0 -18 -22 -35 -48z"/>
<path d="M202 1991 c-27 -48 -27 -55 0 -40 18 10 24 8 35 -7 16 -22 16 -39 2
-63 -7 -11 -9 -32 -5 -55 7 -36 8 -37 29 -23 38 25 43 42 22 80 -15 29 -16 38
-6 51 10 12 9 20 -6 43 -19 29 -39 53 -45 53 -3 0 -14 -17 -26 -39z"/>
<path d="M314 1966 c4 -27 3 -46 -2 -46 -20 0 -20 -40 0 -51 25 -13 30 -8 36
39 8 64 7 87 -3 87 -5 0 -16 4 -24 9 -11 7 -12 1 -7 -38z"/>
<path d="M730 1971 c-45 -6 -107 -38 -130 -65 -20 -25 2 -56 114 -168 59 -60
116 -86 158 -72 11 3 28 7 37 9 9 1 15 10 15 19 -1 9 5 16 13 16 9 0 13 -6 9
-15 -11 -30 33 -16 49 15 10 20 23 30 38 30 26 0 51 47 41 76 -13 33 -87 95
-152 126 -68 33 -119 41 -192 29z m121 -138 c11 -13 11 -15 1 -9 -8 5 -26 12
-40 16 l-27 8 26 1 c15 1 33 -7 40 -16z m9 -79 c0 -8 -9 -14 -20 -14 -17 0
-19 3 -8 19 13 21 28 19 28 -5z"/>
<path d="M1370 1910 c-13 -8 -12 -10 3 -10 9 0 17 5 17 10 0 12 -1 12 -20 0z"/>
<path d="M165 1672 c-3 -3 -5 -16 -5 -29 0 -29 25 -31 40 -3 6 11 15 18 21 15
5 -4 9 1 9 9 0 10 -10 14 -30 14 -16 -1 -32 -3 -35 -6z"/>
<path d="M1336 1022 l-29 -4 28 -14 c20 -10 32 -11 39 -4 15 15 -4 26 -38 22z"/>
<path d="M1170 1006 c0 -2 9 -6 20 -9 11 -3 20 -1 20 4 0 5 -9 9 -20 9 -11 0
-20 -2 -20 -4z"/>
<path d="M1228 993 c7 -3 16 -2 19 1 4 3 -2 6 -13 5 -11 0 -14 -3 -6 -6z"/>
<path d="M1435 311 c-3 -5 -1 -12 5 -16 5 -3 10 1 10 9 0 18 -6 21 -15 7z"/>
<path d="M1414 261 c3 -5 -1 -12 -10 -15 -9 -4 -14 -9 -11 -13 8 -7 37 15 37
28 0 5 -5 9 -11 9 -5 0 -8 -4 -5 -9z"/>
</g>
</svg>
